# xmcd
#
# Track frame offsets:
#	150
#	17760
#	36680
#	56782
#	73293
#	90887
#	113199
#	137440
#	159031
#	180837
#
# Disc length: 2620 seconds
#
# Revision: 1
# Processed by: cddbd v1.5PL3 Copyright (c) Steve Scherf et al.
# Submitted via: EasyCDDAExtractor 7.0.3.1
#
DISCID=7b0a3a0a
DTITLE=Eric CLapton - Unreleased Rare Trax 5
DYEAR=1900
DGENRE=blues
TTITLE0=Merry Xmas Baby
TTITLE1=Crying Xmas Tears
TTITLE2=Give Me One Reason
TTITLE3=Xmas Without You
TTITLE4=Santa Claus Is Coming To Town
TTITLE5=Crossroads
TTITLE6=Sunshine Of Your Love
TTITLE7=Use Me
TTITLE8=Going Down Slow
TTITLE9=I'll Take You There
EXTD=
EXTT0=
EXTT1=
EXTT2=
EXTT3=
EXTT4=
EXTT5=
EXTT6=
EXTT7=
EXTT8=
EXTT9=
PLAYORDER=
